<svg width="97" height="97" viewBox="0 0 97 97" fill="none" xmlns="http://www.w3.org/2000/svg">
<path d="M45.6788 2.0921C47.1324 0.419194 49.7298 0.419194 51.1834 2.0921C52.7354 3.8784 55.3821 4.21276 57.3296 2.86856C59.1535 1.60969 61.6694 2.25565 62.6612 4.23748C63.7203 6.35364 66.2007 7.33569 68.4213 6.51806C70.501 5.75232 72.7772 7.00367 73.245 9.16989C73.7445 11.483 75.9028 13.051 78.257 12.8113C80.4617 12.5868 82.3552 14.3649 82.2696 16.5794C82.1782 18.944 83.8787 20.9995 86.2185 21.3528C88.4099 21.6837 89.8017 23.8768 89.168 26.0005C88.4914 28.2681 89.6273 30.6819 91.8058 31.606C93.846 32.4714 94.6486 34.9418 93.5068 36.8411C92.2875 38.8692 92.7874 41.4897 94.6676 42.9265C96.4285 44.2722 96.5916 46.8645 95.0132 48.4202C93.3279 50.0814 93.1604 52.7438 94.6243 54.6031C95.9952 56.3444 95.5084 58.8958 93.5928 60.0102C91.5473 61.2 90.7229 63.7372 91.6784 65.9021C92.5732 67.9296 91.4673 70.2798 89.3347 70.8827C87.0576 71.5265 85.6281 73.7789 86.0152 76.1135C86.3776 78.2998 84.722 80.3012 82.5064 80.3548C80.1408 80.412 78.1961 82.2382 77.9904 84.5956C77.7978 86.8034 75.6964 88.3302 73.5371 87.8311C71.2315 87.2983 68.8938 88.5834 68.1083 90.8157C67.3727 92.9062 64.9576 93.8624 62.9903 92.842C60.8896 91.7525 58.3057 92.4159 56.9898 94.3827C55.7574 96.2246 53.1804 96.5501 51.5287 95.0726C49.7649 93.4949 47.0972 93.4949 45.3335 95.0726C43.6818 96.5501 41.1048 96.2246 39.8724 94.3827C38.5565 92.4159 35.9725 91.7525 33.8719 92.842C31.9046 93.8624 29.4895 92.9062 28.7539 90.8157C27.9684 88.5834 25.6307 87.2983 23.3251 87.8311C21.1658 88.3302 19.0644 86.8034 18.8718 84.5956C18.6661 82.2382 16.7214 80.412 14.3557 80.3548C12.1402 80.3012 10.4845 78.2998 10.847 76.1135C11.2341 73.7789 9.80463 71.5265 7.5275 70.8827C5.39492 70.2798 4.28897 67.9296 5.18378 65.9021C6.13923 63.7372 5.31487 61.2 3.26938 60.0102C1.35374 58.8958 0.867019 56.3444 2.23793 54.6031C3.70176 52.7438 3.53426 50.0814 1.84893 48.4202C0.270597 46.8645 0.433693 44.2722 2.19457 42.9265L1.89097 42.5293L2.19457 42.9265C4.0748 41.4897 4.57468 38.8692 3.35542 36.8411C2.21355 34.9418 3.01622 32.4714 5.05641 31.606C7.2349 30.6819 8.37076 28.2681 7.69417 26.0005C7.06053 23.8768 8.45233 21.6837 10.6437 21.3528C12.9835 20.9995 14.684 18.944 14.5926 16.5794C14.507 14.3649 16.4005 12.5868 18.6052 12.8113C20.9594 13.051 23.1177 11.483 23.6172 9.16989C24.085 7.00367 26.3612 5.75232 28.4408 6.51806C30.6615 7.33569 33.1419 6.35364 34.2009 4.23748C35.1928 2.25565 37.7086 1.60969 39.5325 2.86856C41.4801 4.21276 44.1268 3.8784 45.6788 2.0921Z" stroke="#00978E"/>
</svg>
