<svg width="200" height="56" viewBox="0 0 200 56" fill="none" xmlns="http://www.w3.org/2000/svg">
<path d="M7.12423 27.186V28.152H3.12023V31.288H6.07423C6.80223 31.288 7.40423 31.526 7.88024 32.002C8.35624 32.478 8.59424 33.0473 8.59424 33.71V34.62C8.59424 35.2733 8.36557 35.8333 7.90823 36.3C7.46023 36.7667 6.8909 37 6.20023 37H2.05623V27.186H7.12423ZM5.96223 32.226H3.12023V36.048H6.08823C6.48957 36.048 6.83023 35.9173 7.11023 35.656C7.39023 35.3947 7.53023 35.0633 7.53023 34.662V33.682C7.53023 33.262 7.3809 32.9167 7.08223 32.646C6.78357 32.366 6.41023 32.226 5.96223 32.226ZM13.9562 29.258C14.5909 29.258 15.1136 29.4633 15.5242 29.874C15.9442 30.2847 16.1542 30.7747 16.1542 31.344V37H15.4402L15.2722 36.146C14.6749 36.7713 14.0262 37.084 13.3262 37.084H12.4582C11.9076 37.084 11.4456 36.9067 11.0722 36.552C10.7082 36.188 10.5262 35.7633 10.5262 35.278V34.452C10.5262 33.948 10.7409 33.5373 11.1702 33.22C11.5996 32.9027 12.1222 32.702 12.7382 32.618L15.1462 32.296V31.428C15.1462 31.064 15.0156 30.7607 14.7542 30.518C14.5022 30.2753 14.1989 30.154 13.8442 30.154H13.2002C12.8456 30.154 12.5422 30.2567 12.2902 30.462C12.0382 30.6673 11.9122 30.9287 11.9122 31.246V31.512H10.8902V31.19C10.8902 30.6487 11.0956 30.1913 11.5062 29.818C11.9169 29.4447 12.4349 29.258 13.0602 29.258H13.9562ZM13.3682 36.174C14.0962 36.174 14.6889 35.8473 15.1462 35.194V33.136L12.8642 33.5C12.5002 33.556 12.1876 33.682 11.9262 33.878C11.6742 34.074 11.5482 34.298 11.5482 34.55V35.166C11.5482 35.446 11.6556 35.684 11.8702 35.88C12.0849 36.076 12.3369 36.174 12.6262 36.174H13.3682ZM24.4779 37H23.3019L20.5999 33.472H19.5919V37H18.5699V29.342H19.5919V32.576H20.5159L22.8539 29.342H24.0159L21.2999 32.982L24.4779 37ZM25.0131 30.238V29.342H30.8651V30.238H28.4431V37H27.4351V30.238H25.0131ZM37.7838 33.528H33.1778V34.774C33.1778 35.1847 33.3131 35.5207 33.5838 35.782C33.8545 36.0433 34.1858 36.174 34.5778 36.174H35.3758C35.7585 36.174 36.0851 36.0433 36.3558 35.782C36.6358 35.5113 36.7758 35.1753 36.7758 34.774V34.732H37.7838V34.858C37.7838 35.474 37.5691 36.0013 37.1398 36.44C36.7198 36.8693 36.1831 37.084 35.5298 37.084H34.4798C33.8078 37.084 33.2525 36.8693 32.8138 36.44C32.3751 36.0013 32.1558 35.474 32.1558 34.858V31.498C32.1558 30.882 32.3751 30.3547 32.8138 29.916C33.2525 29.4773 33.8078 29.258 34.4798 29.258H35.5298C36.1831 29.258 36.7198 29.4773 37.1398 29.916C37.5691 30.3547 37.7838 30.882 37.7838 31.498V33.528ZM33.1778 31.568V32.702H36.7758V31.568C36.7758 31.1667 36.6358 30.8307 36.3558 30.56C36.0851 30.2893 35.7585 30.154 35.3758 30.154H34.5778C34.1858 30.154 33.8545 30.2893 33.5838 30.56C33.3131 30.8213 33.1778 31.1573 33.1778 31.568ZM40.0758 29.342H40.7898L40.9438 30.098C41.4851 29.538 42.0824 29.258 42.7358 29.258H43.6038C44.2104 29.258 44.7098 29.4867 45.1018 29.944C45.5031 30.4013 45.7038 30.952 45.7038 31.596V34.732C45.7038 35.376 45.5031 35.9313 45.1018 36.398C44.7098 36.8553 44.2104 37.084 43.6038 37.084H42.6798C42.1011 37.084 41.5738 36.8553 41.0978 36.398V39.898H40.0758V29.342ZM42.6098 30.154C42.0124 30.154 41.5084 30.4433 41.0978 31.022V35.292C41.5178 35.88 42.0311 36.174 42.6378 36.174H43.3238C43.7064 36.174 44.0284 36.0387 44.2898 35.768C44.5604 35.488 44.6958 35.138 44.6958 34.718V31.61C44.6958 31.1993 44.5558 30.854 44.2758 30.574C44.0051 30.294 43.6831 30.154 43.3098 30.154H42.6098ZM49.0274 37H48.0054V29.342H49.0274V35.194L52.6254 29.342H53.6334V37H52.6254V31.148L49.0274 37ZM56.0992 37V29.342H57.1212V36.09H60.7192V29.342H61.7272V36.09H62.7912V38.526H61.7832V37H56.0992ZM65.4063 37H64.3843V29.342H65.4063V35.194L69.0043 29.342H70.0123V37H69.0043V31.148L65.4063 37ZM78.5821 36.09V38.722H77.5601V37H72.3801V38.736H71.3721V36.09H72.4781C73.2154 34.2233 73.6214 31.974 73.6961 29.342H77.5881V36.09H78.5821ZM74.6621 30.238C74.5034 32.4127 74.1068 34.3633 73.4721 36.09H76.5661V30.238H74.6621ZM81.2794 37H80.2574V29.342H81.2794V32.506H84.8774V29.342H85.8854V37H84.8774V33.402H81.2794V37ZM89.3731 29.342V32.072H91.7811C92.4158 32.072 92.9385 32.268 93.3491 32.66C93.7691 33.052 93.9791 33.5233 93.9791 34.074V34.984C93.9791 35.5347 93.7691 36.0107 93.3491 36.412C92.9385 36.804 92.4158 37 91.7811 37H88.3511V29.342H89.3731ZM91.6971 32.968H89.3731V36.09H91.6971C92.0518 36.09 92.3505 35.9687 92.5931 35.726C92.8451 35.4833 92.9711 35.18 92.9711 34.816V34.242C92.9711 33.878 92.8451 33.5747 92.5931 33.332C92.3505 33.0893 92.0518 32.968 91.6971 32.968ZM96.4151 37H95.4071V29.342H96.4151V37ZM99.9142 37H98.8922V29.342H99.9142V35.194L103.512 29.342H104.52V37H103.512V31.148L99.9142 37ZM103.008 26.556H103.848V26.99C103.848 27.3913 103.703 27.7367 103.414 28.026C103.134 28.306 102.793 28.446 102.392 28.446H101.16C100.759 28.446 100.413 28.306 100.124 28.026C99.8442 27.7367 99.7042 27.3913 99.7042 26.99V26.556H100.544V26.92C100.544 27.116 100.609 27.284 100.74 27.424C100.871 27.5547 101.034 27.62 101.23 27.62H102.322C102.509 27.62 102.667 27.5547 102.798 27.424C102.938 27.284 103.008 27.116 103.008 26.92V26.556ZM1.97223 45.342H2.68623L2.84023 46.098C3.38157 45.538 3.9789 45.258 4.63223 45.258H5.50023C6.1069 45.258 6.60623 45.4867 6.99823 45.944C7.39957 46.4013 7.60023 46.952 7.60023 47.596V50.732C7.60023 51.376 7.39957 51.9313 6.99823 52.398C6.60623 52.8553 6.1069 53.084 5.50023 53.084H4.57623C3.99757 53.084 3.47023 52.8553 2.99423 52.398V55.898H1.97223V45.342ZM4.50623 46.154C3.9089 46.154 3.4049 46.4433 2.99423 47.022V51.292C3.41423 51.88 3.92757 52.174 4.53423 52.174H5.22023C5.6029 52.174 5.9249 52.0387 6.18623 51.768C6.4569 51.488 6.59223 51.138 6.59223 50.718V47.61C6.59223 47.1993 6.45223 46.854 6.17223 46.574C5.90157 46.294 5.57957 46.154 5.20623 46.154H4.50623ZM15.3619 49.528H10.7559V50.774C10.7559 51.1847 10.8913 51.5207 11.1619 51.782C11.4326 52.0433 11.7639 52.174 12.1559 52.174H12.9539C13.3366 52.174 13.6633 52.0433 13.9339 51.782C14.2139 51.5113 14.3539 51.1753 14.3539 50.774V50.732H15.3619V50.858C15.3619 51.474 15.1473 52.0013 14.7179 52.44C14.2979 52.8693 13.7613 53.084 13.1079 53.084H12.0579C11.3859 53.084 10.8306 52.8693 10.3919 52.44C9.95326 52.0013 9.73392 51.474 9.73392 50.858V47.498C9.73392 46.882 9.95326 46.3547 10.3919 45.916C10.8306 45.4773 11.3859 45.258 12.0579 45.258H13.1079C13.7613 45.258 14.2979 45.4773 14.7179 45.916C15.1473 46.3547 15.3619 46.882 15.3619 47.498V49.528ZM10.7559 47.568V48.702H14.3539V47.568C14.3539 47.1667 14.2139 46.8307 13.9339 46.56C13.6633 46.2893 13.3366 46.154 12.9539 46.154H12.1559C11.7639 46.154 11.4326 46.2893 11.1619 46.56C10.8913 46.8213 10.7559 47.1573 10.7559 47.568ZM17.6539 53V45.342H18.6759V52.09H22.2739V45.342H23.2819V52.09H24.3459V54.526H23.3379V53H17.6539ZM26.961 53H25.939V45.342H26.961V51.194L30.559 45.342H31.567V53H30.559V47.148L26.961 53ZM34.0328 45.342H34.7468L34.9008 46.098C35.4421 45.538 36.0394 45.258 36.6928 45.258H37.5608C38.1674 45.258 38.6668 45.4867 39.0588 45.944C39.4601 46.4013 39.6608 46.952 39.6608 47.596V50.732C39.6608 51.376 39.4601 51.9313 39.0588 52.398C38.6668 52.8553 38.1674 53.084 37.5608 53.084H36.6368C36.0581 53.084 35.5308 52.8553 35.0548 52.398V55.898H34.0328V45.342ZM36.5668 46.154C35.9694 46.154 35.4654 46.4433 35.0548 47.022V51.292C35.4748 51.88 35.9881 52.174 36.5948 52.174H37.2808C37.6634 52.174 37.9854 52.0387 38.2468 51.768C38.5174 51.488 38.6528 51.138 38.6528 50.718V47.61C38.6528 47.1993 38.5128 46.854 38.2328 46.574C37.9621 46.294 37.6401 46.154 37.2668 46.154H36.5668ZM47.8705 53H46.6945L43.9925 49.472H42.9845V53H41.9625V45.342H42.9845V48.576H43.9085L46.2465 45.342H47.4085L44.6925 48.982L47.8705 53ZM48.6716 45.342H49.7076L51.7656 49.304L53.3756 45.342H54.4116L52.3956 50.382C52.069 51.222 51.663 51.8753 51.1776 52.342C50.7016 52.7993 50.0856 53.028 49.3296 53.028H49.2596V52.132H49.3296C50.1043 52.132 50.753 51.586 51.2756 50.494L48.6716 45.342ZM56.3922 45.342H61.9222V53H60.9002V46.238H57.4142V50.928C57.4142 51.5907 57.1995 52.118 56.7702 52.51C56.3409 52.8927 55.7809 53.084 55.0902 53.084H55.0062V52.188H55.0902C55.4449 52.188 55.7482 52.0667 56.0002 51.824C56.2615 51.5813 56.3922 51.2827 56.3922 50.928V45.342ZM69.5083 53H68.5003V50.242H66.6663L65.0703 53H64.0063L65.6163 50.2C65.1217 50.0973 64.7203 49.8733 64.4123 49.528C64.1137 49.1733 63.9643 48.7767 63.9643 48.338V47.344C63.9643 46.8027 64.1697 46.336 64.5803 45.944C65.0003 45.5427 65.523 45.342 66.1483 45.342H69.5083V53ZM64.9863 48.142C64.9863 48.478 65.103 48.7627 65.3363 48.996C65.5697 49.2293 65.8497 49.346 66.1763 49.346H68.5003V46.238H66.1763C65.8497 46.238 65.5697 46.3547 65.3363 46.588C65.103 46.8213 64.9863 47.106 64.9863 47.442V48.142ZM70.9642 46.238V45.342H76.8162V46.238H74.3942V53H73.3862V46.238H70.9642ZM80.529 52.174H81.327C81.7096 52.174 82.0363 52.0433 82.307 51.782C82.587 51.5113 82.727 51.1753 82.727 50.774V47.568C82.727 47.1667 82.587 46.8307 82.307 46.56C82.0363 46.2893 81.7096 46.154 81.327 46.154H80.529C80.137 46.154 79.8056 46.2893 79.535 46.56C79.2643 46.8213 79.129 47.1573 79.129 47.568V50.774C79.129 51.1847 79.2643 51.5207 79.535 51.782C79.8056 52.0433 80.137 52.174 80.529 52.174ZM81.481 53.084H80.431C79.759 53.084 79.2036 52.8693 78.765 52.44C78.3263 52.0013 78.107 51.474 78.107 50.858V47.498C78.107 46.882 78.3263 46.3547 78.765 45.916C79.2036 45.4773 79.759 45.258 80.431 45.258H81.481C82.1343 45.258 82.671 45.4773 83.091 45.916C83.5203 46.3547 83.735 46.882 83.735 47.498V50.858C83.735 51.474 83.5203 52.0013 83.091 52.44C82.671 52.8693 82.1343 53.084 81.481 53.084ZM86.0269 45.342H86.7409L86.8949 46.098C87.4363 45.538 88.0336 45.258 88.6869 45.258H89.5549C90.1616 45.258 90.6609 45.4867 91.0529 45.944C91.4543 46.4013 91.6549 46.952 91.6549 47.596V50.732C91.6549 51.376 91.4543 51.9313 91.0529 52.398C90.6609 52.8553 90.1616 53.084 89.5549 53.084H88.6309C88.0523 53.084 87.5249 52.8553 87.0489 52.398V55.898H86.0269V45.342ZM88.5609 46.154C87.9636 46.154 87.4596 46.4433 87.0489 47.022V51.292C87.4689 51.88 87.9823 52.174 88.5889 52.174H89.2749C89.6576 52.174 89.9796 52.0387 90.2409 51.768C90.5116 51.488 90.6469 51.138 90.6469 50.718V47.61C90.6469 47.1993 90.5069 46.854 90.2269 46.574C89.9563 46.294 89.6343 46.154 89.2609 46.154H88.5609Z" fill="#333333"/>
<path d="M18.798 19.0002L17.316 15.4902H6.812L5.33 19.0002H0L7.982 0.800243H16.302L24.31 19.0002H18.798ZM8.554 11.4342H15.6L12.064 3.11424L8.554 11.4342Z" fill="#00978E"/>
<path d="M43.422 0.800243H48.596V19.0002H39.418L31.93 3.86824V19.0002H26.756V0.800243H35.934L43.422 15.9322V0.800243Z" fill="#00978E"/>
<path d="M68.8452 0.800243H74.3572L66.7392 19.0002H58.6012L51.0872 0.800243H56.7552L62.7352 16.3742L68.8452 0.800243Z" fill="#00978E"/>
<path d="M76.8517 19.0002V0.800243H82.2597V19.0002H76.8517Z" fill="#00978E"/>
<path d="M108.467 19.0002H101.629L94.7131 11.9542H92.0351V19.0002H86.6271V0.800243H92.0351V7.82024H94.6091L101.187 0.800243H107.661L98.8991 9.53624L108.467 19.0002Z" fill="#00978E"/>
<path d="M150.018 19.0002L144.064 12.5522H140.684V19.0002H135.276V0.800243H148.224C150.408 0.800243 152.21 1.30291 153.632 2.30824C155.07 3.31358 155.79 4.83024 155.79 6.85824C155.79 10.0996 153.926 11.9629 150.2 12.4482L156.856 19.0002H150.018ZM140.684 5.11624V8.49624H147.964C148.709 8.49624 149.298 8.35758 149.732 8.08024C150.165 7.80291 150.382 7.39558 150.382 6.85824C150.382 6.32091 150.156 5.89624 149.706 5.58424C149.272 5.27224 148.692 5.11624 147.964 5.11624H140.684Z" fill="#00978E"/>
<path d="M119.872 0.488281C116.076 0.488281 113.112 1.32028 110.98 2.98428C109.378 4.23434 108.378 5.84634 107.98 7.82028H113.638C113.928 7.2245 114.359 6.7045 114.932 6.26028C116.11 5.34161 117.757 4.88228 119.872 4.88228C121.986 4.88228 123.624 5.34161 124.786 6.26028C125.964 7.16161 126.554 8.37495 126.554 9.90028C126.554 11.4256 125.964 12.6476 124.786 13.5663C123.624 14.4676 121.986 14.9183 119.872 14.9183C117.757 14.9183 116.11 14.4676 114.932 13.5663C114.349 13.1053 113.912 12.568 113.622 11.9543H107.974C108.369 13.9401 109.371 15.5607 110.98 16.8163C113.112 18.4803 116.076 19.3123 119.872 19.3123C123.668 19.3123 126.632 18.4803 128.764 16.8163C130.896 15.1523 131.962 12.8469 131.962 9.90028C131.962 6.95361 130.896 4.64828 128.764 2.98428C126.632 1.32028 123.668 0.488281 119.872 0.488281Z" fill="#00978E"/>
</svg>
