<svg width="151" height="129" viewBox="0 0 151 129" fill="none" xmlns="http://www.w3.org/2000/svg">
<path d="M144.545 17.25V17.25C135.018 7.72309 119.572 7.72309 110.045 17.25V17.25C100.518 26.7769 85.072 26.7769 75.5451 17.25V17.25C66.0182 7.72309 50.572 7.72309 41.0451 17.25V17.25C31.5182 26.7769 16.072 26.7769 6.5451 17.25V17.25" stroke="#00A097" stroke-width="15"/>
<path d="M144.795 48.7501V48.7501C135.268 39.2232 119.822 39.2232 110.295 48.7501V48.7501C100.768 58.277 85.322 58.277 75.795 48.7501V48.7501C66.2681 39.2232 50.822 39.2232 41.295 48.7501V48.7501C31.7681 58.277 16.322 58.277 6.79504 48.7501V48.7501" stroke="#00A097" stroke-width="15"/>
<path d="M144.295 80.25V80.25C134.768 70.7231 119.322 70.7231 109.795 80.25V80.25C100.268 89.7769 84.822 89.7769 75.295 80.25V80.25C65.7681 70.7231 50.3219 70.7231 40.795 80.25V80.25C31.2681 89.7769 15.822 89.7769 6.29504 80.25V80.25" stroke="#00A097" stroke-width="15"/>
<path d="M144.795 111.75V111.75C135.268 102.223 119.822 102.223 110.295 111.75V111.75C100.768 121.277 85.322 121.277 75.795 111.75V111.75C66.2681 102.223 50.822 102.223 41.295 111.75V111.75C31.7681 121.277 16.322 121.277 6.79504 111.75V111.75" stroke="#00A097" stroke-width="15"/>
</svg>
