<svg width="215" height="219" viewBox="0 0 215 219" fill="none" xmlns="http://www.w3.org/2000/svg">
<path d="M100.889 4.47781C104.361 0.429233 110.639 0.429233 114.111 4.47781C117.349 8.25479 122.93 8.96743 127.008 6.11523C131.358 3.07282 137.439 4.68226 139.795 9.45216C141.994 13.9046 147.234 16.0311 151.894 14.2924C156.865 12.4378 162.322 15.4324 163.428 20.6212L163.474 20.8361C164.51 25.6974 169.044 28.9961 173.988 28.486C179.269 27.9412 183.809 32.1969 183.607 37.5019L183.597 37.7501C183.407 42.7241 186.98 47.0489 191.9 47.8018C197.163 48.607 200.508 53.8679 199.004 58.9748L198.943 59.1817C197.534 63.9681 199.923 69.0528 204.507 71.0233C209.414 73.1326 211.32 79.1413 208.59 83.744C206.039 88.0438 207.058 93.6245 211.017 96.6901C215.263 99.9783 215.651 106.257 211.85 110.054C208.305 113.595 207.966 119.253 211.039 123.207C214.329 127.442 213.173 133.631 208.559 136.351C204.25 138.89 202.552 144.314 204.545 148.89C206.678 153.787 204.046 159.522 198.925 160.989C194.134 162.361 191.13 167.103 191.934 172.021L191.973 172.257C192.831 177.502 188.858 182.297 183.544 182.427C178.572 182.549 174.488 186.39 174.061 191.345L174.04 191.586C173.585 196.872 168.548 200.525 163.382 199.315C158.538 198.181 153.603 200.968 151.974 205.657C150.231 210.679 144.397 213.056 139.705 210.59C135.302 208.276 129.845 209.706 127.107 213.853C124.172 218.298 117.945 219.113 114.004 215.54C110.313 212.195 104.687 212.195 100.996 215.54C97.0555 219.113 90.8277 218.298 87.8931 213.853C85.1547 209.706 79.6981 208.276 75.2947 210.59C70.6028 213.056 64.7694 210.679 63.0255 205.657C61.3972 200.968 56.4616 198.181 51.6179 199.315C46.4522 200.525 41.4149 196.872 40.9598 191.586L40.939 191.345C40.5124 186.39 36.4276 182.549 31.4558 182.427C26.1424 182.297 22.1688 177.502 23.027 172.257L23.0657 172.021C23.8703 167.103 20.8659 162.361 16.0754 160.989C10.9543 159.522 8.32184 153.787 10.4548 148.89C12.4479 144.314 10.7501 138.89 6.4414 136.351C1.82721 133.631 0.67126 127.442 3.9611 123.207C7.03383 119.253 6.69536 113.595 3.14977 110.054C-0.651364 106.257 -0.263409 99.9783 3.98293 96.6901C7.94177 93.6245 8.96132 88.0438 6.41037 83.744C3.67966 79.1413 5.58635 73.1326 10.4934 71.0233C15.0774 69.0528 17.4665 63.9681 16.0571 59.1817L15.9962 58.9748C14.4925 53.8679 17.8372 48.607 23.0997 47.8018C28.0201 47.0489 31.5925 42.7241 31.4028 37.7501L31.3933 37.5019C31.191 32.1969 35.7313 27.9412 41.0121 28.486C45.9563 28.9961 50.4901 25.6974 51.5261 20.8361L51.5719 20.6212C52.6777 15.4324 58.1353 12.4378 63.1059 14.2924C67.766 16.0311 73.0062 13.9046 75.2051 9.45216C77.5609 4.68226 83.6418 3.07282 87.9918 6.11523C92.0698 8.96743 97.6509 8.25479 100.889 4.47781Z" stroke="white"/>
</svg>
