<svg width="208" height="212" viewBox="0 0 208 212" fill="none" xmlns="http://www.w3.org/2000/svg">
<circle cx="104" cy="106" r="22" fill="#00978E" fill-opacity="0.5"/>
<path d="M14.2658 142.304L13.8069 142.105L14.2658 142.304L14.3602 142.086C16.2082 137.818 14.595 132.842 10.5946 130.47C6.3418 127.949 5.28258 122.226 8.31018 118.307C11.1627 114.614 10.8539 109.333 7.55904 106.023C4.05551 102.504 4.41122 96.702 8.32723 93.6519C12.0076 90.7854 12.9418 85.5715 10.5772 81.5626C8.06785 77.3084 9.81519 71.746 14.3348 69.792C18.5951 67.95 20.815 63.222 19.511 58.7674L19.4302 58.4915C18.0532 53.7878 21.1329 48.9475 25.9769 48.2021C30.5488 47.4985 33.8669 43.479 33.6915 38.8567L33.679 38.5257C33.494 33.6481 37.6704 29.7367 42.5254 30.2405C47.1171 30.717 51.328 27.6513 52.2848 23.1353L52.3456 22.8487C53.3563 18.0783 58.3761 15.3262 62.9416 17.0396C67.2629 18.6613 72.1095 16.7386 74.1438 12.5955L74.2241 12.432C76.3785 8.04442 81.9432 6.61965 85.9411 9.43204C89.7234 12.0929 94.9161 11.4267 97.9151 7.90867C101.102 4.16975 106.898 4.16975 110.085 7.90867C113.084 11.4267 118.277 12.0929 122.059 9.43204C126.057 6.61965 131.622 8.04442 133.776 12.432L133.856 12.5955C135.891 16.7386 140.737 18.6613 145.058 17.0396C149.624 15.3262 154.644 18.0783 155.654 22.8487L155.715 23.1353C156.672 27.6513 160.883 30.717 165.475 30.2405C170.33 29.7367 174.506 33.6481 174.321 38.5257L174.308 38.8567C174.133 43.479 177.451 47.4985 182.023 48.2021C186.867 48.9475 189.947 53.7878 188.57 58.4915L188.489 58.7675C187.185 63.222 189.405 67.95 193.665 69.792C198.185 71.746 199.932 77.3084 197.423 81.5626C195.058 85.5715 195.992 90.7854 199.673 93.6519C203.589 96.702 203.944 102.504 200.441 106.023C197.146 109.333 196.837 114.614 199.69 118.307C202.717 122.226 201.658 127.949 197.405 130.47C193.405 132.842 191.792 137.818 193.64 142.086L193.734 142.304C195.687 146.815 193.234 152.015 188.511 153.376C184.059 154.659 181.268 159.066 182.012 163.639L182.063 163.954C182.848 168.78 179.192 173.189 174.304 173.309C169.685 173.423 165.892 176.993 165.497 181.596L165.47 181.917C165.054 186.776 160.421 190.133 155.675 189.015C151.183 187.957 146.619 190.471 145.113 194.833L145.033 195.065C143.44 199.678 138.108 201.783 133.794 199.502C129.708 197.342 124.628 198.686 122.095 202.544C119.404 206.644 113.656 207.407 110.039 204.11C106.617 200.99 101.383 200.99 97.9608 204.11C94.3442 207.407 88.5961 206.644 85.9048 202.544C83.3721 198.686 78.2924 197.342 74.2061 199.502C69.8917 201.783 64.5597 199.678 62.967 195.065L62.887 194.833C61.381 190.471 56.8173 187.957 52.3254 189.015C47.5787 190.133 42.9459 186.776 42.53 181.917L42.5025 181.596C42.1085 176.993 38.3148 173.423 33.6962 173.309C28.8083 173.189 25.1518 168.78 25.9368 163.954L25.9881 163.639C26.732 159.066 23.941 154.659 19.4892 153.376C14.7659 152.015 12.3126 146.815 14.2658 142.304Z" stroke="#00978E"/>
</svg>
