<svg width="208" height="144" viewBox="0 0 208 144" fill="none" xmlns="http://www.w3.org/2000/svg">
<path d="M13.1727 56C5.40545 59.0563 1 62.55 1 66.2609C1 78.2671 47.1147 88 104 88C160.885 88 207 78.2671 207 66.2609C207 62.55 202.595 59.0563 194.827 56" stroke="#00978E" stroke-dasharray="15 15"/>
<path d="M13.1727 1C5.40545 4.0563 1 7.55003 1 11.2609C1 23.2671 47.1147 33 104 33C160.885 33 207 23.2671 207 11.2609C207 7.55003 202.595 4.0563 194.827 1" stroke="#00978E" stroke-dasharray="15 15"/>
<path d="M13.1727 111C5.40545 114.056 1 117.55 1 121.261C1 133.267 47.1147 143 104 143C160.885 143 207 133.267 207 121.261C207 117.55 202.595 114.056 194.827 111" stroke="#00978E" stroke-dasharray="15 15"/>
</svg>
