<svg width="294" height="297" viewBox="0 0 294 297" fill="none" xmlns="http://www.w3.org/2000/svg">
<path d="M137.873 5.40958C142.667 -0.17933 151.333 -0.17933 156.127 5.40958C160.472 10.4754 167.958 11.4309 173.428 7.60593C179.437 3.40449 187.83 5.62687 191.082 12.2106C194.033 18.184 201.063 21.0341 207.313 18.7029C214.176 16.1427 221.712 20.2777 223.239 27.4422L223.3 27.7286C224.69 34.2499 230.772 38.6749 237.405 37.9907C244.696 37.2387 250.964 43.1146 250.685 50.4389L250.672 50.7699C250.418 57.4428 255.21 63.2447 261.811 64.2544C269.076 65.3656 273.693 72.6283 271.617 79.678L271.536 79.9539C269.644 86.3752 272.85 93.1971 279 95.84C285.775 98.7515 288.405 107.043 284.636 113.393C281.213 119.163 282.583 126.65 287.893 130.761C293.754 135.298 294.289 143.962 289.043 149.2C284.286 153.95 283.831 161.541 287.955 166.847C292.495 172.689 290.9 181.229 284.531 184.983C278.751 188.388 276.471 195.663 279.146 201.804C282.09 208.561 278.458 216.475 271.387 218.5C264.96 220.341 260.929 226.702 262.009 233.3L262.06 233.615C263.245 240.856 257.76 247.475 250.424 247.655C243.754 247.819 238.275 252.972 237.702 259.619L237.674 259.94C237.046 267.239 230.091 272.283 222.958 270.612C216.463 269.092 209.841 272.827 207.655 279.119C205.248 286.05 197.197 289.332 190.715 285.926C184.809 282.823 177.49 284.74 173.816 290.304C169.764 296.438 161.167 297.564 155.724 292.631C150.773 288.145 143.227 288.145 138.276 292.631C132.833 297.564 124.236 296.438 120.184 290.304C116.51 284.74 109.191 282.823 103.285 285.926C96.8031 289.332 88.7521 286.05 86.3447 279.119C84.1592 272.827 77.5375 269.092 71.0418 270.612C63.9092 272.283 56.9542 267.239 56.3256 259.94L56.298 259.619C55.7255 252.972 50.2457 247.819 43.5759 247.655C36.2404 247.475 30.7546 240.856 31.9397 233.615L31.9913 233.3C33.071 226.702 29.0402 220.341 22.6133 218.5C15.5415 216.475 11.9101 208.561 14.8538 201.804C17.529 195.663 15.2485 188.388 9.46903 184.983C3.09977 181.229 1.50509 172.689 6.04523 166.847C10.1687 161.541 9.71376 153.95 4.95663 149.2C-0.289104 143.962 0.246116 135.298 6.10662 130.761C11.4174 126.65 12.7873 119.163 9.36355 113.393C5.59505 107.043 8.22532 98.7515 15.0002 95.84C21.1504 93.1971 24.3557 86.3752 22.4645 79.9539L22.3832 79.678C20.3069 72.6283 24.9241 65.3656 32.1887 64.2544C38.7897 63.2447 43.5825 57.4428 43.3278 50.7699L43.3152 50.4389C43.0357 43.1146 49.3043 37.2387 56.5953 37.9907C63.2279 38.6749 69.3098 34.2499 70.7 27.7286L70.761 27.4422C72.2883 20.2777 79.8238 16.1427 86.6873 18.7029C92.9372 21.0341 99.9667 18.184 102.918 12.2106C106.17 5.62688 114.563 3.40449 120.572 7.60593C126.042 11.4309 133.528 10.4754 137.873 5.40958Z" stroke="#00978E"/>
</svg>
