<svg width="107" height="25" viewBox="0 0 107 25" fill="none" xmlns="http://www.w3.org/2000/svg">
<g opacity="0.85" clip-path="url(#clip0)">
<path fill-rule="evenodd" clip-rule="evenodd" d="M44.4505 14.9524C45.6367 13.8724 46.23 12.4781 46.2303 10.7695C46.2303 9.07202 45.6371 7.68328 44.4505 6.60324C43.2639 5.5232 41.7389 4.98318 39.8755 4.98318H35.7681V16.5563H39.8766C41.7509 16.5563 43.2759 16.0217 44.4515 14.9524H44.4505ZM39.7104 6.65281C41.1741 6.65281 42.3109 7.02204 43.1207 7.7605C43.9415 8.51044 44.3518 9.51343 44.3518 10.7695C44.3518 12.0255 43.9415 13.0287 43.1207 13.779C42.3116 14.5174 41.1748 14.8867 39.7104 14.8867H37.5996V6.65333H39.7104V6.65281ZM57.843 15.8457V14.0101C56.9554 14.7155 55.8473 15.0682 54.5186 15.0682C53.2655 15.0682 52.2278 14.666 51.4053 13.8614C50.5842 13.0461 50.1739 12.0154 50.1742 10.7695C50.1746 9.52352 50.5791 8.49844 51.3879 7.69424C52.2082 6.87855 53.2284 6.47071 54.4484 6.47071C55.5642 6.46035 56.6581 6.77678 57.5923 7.38014V5.54512C56.6717 5.02719 55.6181 4.76822 54.4315 4.76822C52.6568 4.76822 51.1928 5.33572 50.0397 6.47071C48.8756 7.59527 48.2934 9.0282 48.293 10.7695C48.2927 12.5108 48.8749 13.9492 50.0397 15.0849C51.2266 16.2095 52.6905 16.7716 54.4315 16.7712C55.7289 16.7712 56.8657 16.4627 57.8419 15.8457H57.843ZM61.9166 7.76102L65.1608 12.1255H66.2251L69.4693 7.76102V16.5563H71.2993V4.98318H69.4693L65.7265 10.1908L61.9499 4.98318H60.0872V16.5563H61.9166V7.7605V7.76102ZM74.7424 15.5811C75.6296 16.3745 76.6999 16.7714 77.9533 16.7718C79.2067 16.7721 80.2109 16.5076 80.9658 15.9782V14.4734C80.1741 14.9505 79.2646 15.2022 78.3375 15.2008C77.4932 15.2008 76.7972 15.0079 76.2494 14.6221C75.7017 14.2364 75.3719 13.7017 75.26 13.0182H81.5146V12.5554C81.5146 10.9244 80.9379 9.70091 79.7844 8.88489C79.1965 8.44452 78.4813 8.22417 77.6388 8.22382C76.4076 8.22382 75.3983 8.63166 74.611 9.44734C73.8346 10.2519 73.4464 11.2658 73.4464 12.4892C73.4464 13.7571 73.8789 14.7877 74.744 15.5811H74.7424ZM75.9819 10.2822C76.3977 9.91275 76.9217 9.72822 77.5539 9.72857C78.2194 9.72857 78.7406 9.92683 79.1174 10.3234C79.4711 10.6839 79.6778 11.1608 79.6978 11.6627H75.2727C75.319 11.1294 75.5724 10.6346 75.9798 10.2822H75.9819ZM89.8308 15.4475V16.5552H91.6249V4.98318H89.8308V9.54804C89.1427 8.66697 88.1723 8.22608 86.9196 8.22538C85.7661 8.22538 84.8179 8.63879 84.0749 9.4656C83.3312 10.2816 82.9598 11.2904 82.9605 12.4918C82.9605 13.7044 83.332 14.7183 84.0749 15.5336C84.8179 16.3605 85.7661 16.7739 86.9196 16.7739C88.1723 16.7739 89.1427 16.333 89.8308 15.4512V15.4475ZM85.5218 14.4223C85.0233 13.8932 84.7739 13.2483 84.7736 12.4876C84.7736 11.7384 85.023 11.1046 85.5218 10.5863C86.021 10.0573 86.6477 9.79274 87.4019 9.79274C87.9063 9.79046 88.4007 9.93115 88.8267 10.1981C89.2473 10.4503 89.5943 10.8063 89.8335 11.2312V13.7445C89.5998 14.1751 89.2554 14.5372 88.8351 14.7943C88.4077 15.0629 87.9109 15.2035 87.4046 15.1992C86.65 15.1992 86.0233 14.9402 85.5245 14.4223H85.5218ZM96.1355 8.43722H94.3414V16.5563H96.1355V8.43826V8.43722ZM96.03 6.65959C96.1365 6.55494 96.2202 6.42986 96.276 6.29204C96.3318 6.15422 96.3585 6.00657 96.3545 5.85817C96.358 5.70852 96.331 5.5597 96.2753 5.42053C96.2195 5.28135 96.1361 5.15464 96.03 5.04788C95.9287 4.94125 95.8059 4.85673 95.6696 4.79976C95.5333 4.7428 95.3864 4.71464 95.2385 4.71709C95.0881 4.71361 94.9387 4.74124 94.7997 4.79821C94.6608 4.85517 94.5354 4.94022 94.4317 5.04788C94.3257 5.1547 94.2424 5.28143 94.1867 5.4206C94.1311 5.55977 94.1042 5.70856 94.1077 5.85817C94.1038 6.00651 94.1305 6.15408 94.1862 6.29187C94.2419 6.42966 94.3254 6.55478 94.4317 6.65959C94.5366 6.76516 94.6624 6.84826 94.8012 6.90374C94.94 6.95921 95.0888 6.98586 95.2385 6.98204C95.3857 6.98499 95.532 6.95787 95.6682 6.90239C95.8044 6.84691 95.9276 6.76426 96.03 6.65959ZM106.028 14.9514C105.9 14.8084 105.836 14.61 105.836 14.356V11.3298C105.836 10.3489 105.495 9.58561 104.813 9.03985C104.131 8.49409 103.213 8.22121 102.06 8.22121C100.885 8.22121 99.8921 8.4527 99.0826 8.91567V10.4872C99.8544 10.0068 100.749 9.75446 101.661 9.75987C103.258 9.75987 104.057 10.3496 104.057 11.5292V11.9753C103.302 11.5578 102.431 11.3491 101.445 11.3491C100.513 11.3491 99.7371 11.5862 99.1159 12.0603C98.4827 12.5233 98.166 13.1842 98.166 14.043C98.166 14.9018 98.4543 15.5686 99.0309 16.0434C99.6187 16.5304 100.351 16.773 101.227 16.7712C102.491 16.7712 103.495 16.3523 104.238 15.5143C104.449 16.2858 105.02 16.6718 105.951 16.6721C106.406 16.6721 106.755 16.5838 106.999 16.4071V15.0505C106.851 15.1289 106.685 15.1688 106.517 15.1663C106.424 15.1691 106.332 15.1512 106.247 15.114C106.162 15.0768 106.087 15.0212 106.026 14.9514H106.028ZM103.025 14.9597C102.616 15.1387 102.174 15.2316 101.727 15.2326C101.184 15.2326 100.754 15.1223 100.438 14.9018C100.122 14.6813 99.964 14.3616 99.9633 13.9428C99.9579 13.7579 100.002 13.5749 100.091 13.4123C100.18 13.2497 100.311 13.1132 100.47 13.0167C100.808 12.7965 101.277 12.6864 101.876 12.6864C102.641 12.6863 103.393 12.8859 104.055 13.265V14.2564C103.765 14.5604 103.413 14.8005 103.023 14.9607L103.025 14.9597Z" fill="#212121"/>
<path fill-rule="evenodd" clip-rule="evenodd" d="M36.0406 19.8183H35.8981V23.4367H36.0406V19.8183ZM35.8348 18.348C35.7451 18.4349 35.7451 18.5219 35.8348 18.6088C35.9245 18.6958 36.0142 18.6958 36.1039 18.6088C36.1936 18.5215 36.1936 18.4346 36.1039 18.348C36.0142 18.2603 35.925 18.2603 35.8353 18.348H35.8348ZM39.4847 20.1261C39.7776 19.9546 40.1106 19.8618 40.4509 19.8569C41.3427 19.8569 41.7888 20.3265 41.7891 21.2656V23.4367H41.9316V21.2427C41.9316 20.7557 41.8085 20.3809 41.5622 20.1183C41.316 19.8557 40.9517 19.7249 40.4694 19.7259C40.1359 19.7251 39.8072 19.8044 39.5117 19.9571C39.2313 20.0946 38.9854 20.2919 38.7914 20.5347V19.8183H38.6457V23.4367H38.7882V20.7574C38.965 20.4941 39.2041 20.2774 39.4847 20.1261ZM46.429 23.3521V23.206C46.2267 23.33 45.9937 23.3965 45.7557 23.3981C45.2491 23.3981 44.9958 23.1313 44.9958 22.5977V19.9492H46.4923V19.8183H44.9958V18.5864H44.8533V19.8183H43.8397V19.9492H44.8533V22.6363C44.8533 22.9337 44.9337 23.1568 45.0945 23.3057C45.2553 23.4546 45.4757 23.5297 45.7557 23.5311C45.9928 23.5385 46.2269 23.477 46.429 23.3542V23.3521ZM51.5037 23.206V23.0615C51.1769 23.2873 50.7723 23.4001 50.29 23.4001C49.7521 23.4001 49.3036 23.2334 48.9444 22.8998C48.5909 22.561 48.415 22.1375 48.4168 21.6293V21.5771H51.805V21.5249C51.8041 21.3848 51.7896 21.245 51.7617 21.1075C51.7269 20.9439 51.6723 20.785 51.5992 20.6343C51.5242 20.4702 51.4226 20.3194 51.2984 20.1877C51.1584 20.0468 50.9899 19.9365 50.804 19.8642C50.5816 19.7745 50.3433 19.73 50.1032 19.7332C49.565 19.7332 49.1268 19.9129 48.7888 20.2722C48.4458 20.6371 48.2743 21.0914 48.2743 21.635C48.2743 22.1843 48.4678 22.6384 48.8547 22.9973C49.2417 23.3563 49.7219 23.536 50.2953 23.5363C50.8029 23.5363 51.2075 23.4285 51.509 23.2128L51.5037 23.206ZM48.907 20.3484C49.2077 20.0204 49.6063 19.8562 50.1027 19.8558C50.3558 19.8509 50.6066 19.9045 50.8351 20.0124C51.0347 20.1053 51.2055 20.2494 51.3295 20.4298C51.5409 20.7251 51.6569 21.0766 51.6625 21.4383H48.4241C48.4493 21.0282 48.6203 20.6401 48.907 20.3426V20.3484ZM54.1563 20.8795C54.3002 20.5948 54.5121 20.3491 54.7737 20.1637C55.0315 19.9644 55.3493 19.856 55.6766 19.8558V19.7249C55.3365 19.7278 55.0053 19.8326 54.7267 20.0254C54.4935 20.1871 54.2988 20.3972 54.1563 20.6411V19.8183H54.0138V23.4367H54.1563V20.8801V20.8795ZM58.3841 20.1251C58.677 19.9537 59.01 19.8609 59.3502 19.8558C60.242 19.8558 60.6883 20.3254 60.689 21.2646V23.4356H60.8309V21.2427C60.8309 20.7557 60.7078 20.3809 60.4615 20.1183C60.2153 19.8557 59.8512 19.7249 59.3692 19.7259C59.0356 19.7249 58.7068 19.804 58.411 19.9565C58.1307 20.0941 57.8847 20.2913 57.6907 20.5341V19.8183H57.5482V23.4367H57.6907V20.7574C57.8673 20.4941 58.1062 20.2774 58.3867 20.1261L58.3841 20.1251ZM66.2069 23.2034V23.0615C65.8801 23.2873 65.4755 23.4001 64.9932 23.4001C64.455 23.4001 64.0063 23.2334 63.6471 22.8998C63.2954 22.5606 63.1195 22.1371 63.1195 21.6293V21.5771H66.5071V21.5249C66.5063 21.3848 66.4918 21.245 66.4639 21.1075C66.4291 20.9439 66.3745 20.785 66.3014 20.6343C66.2264 20.4702 66.1248 20.3194 66.0006 20.1877C65.8604 20.0469 65.692 19.9367 65.5061 19.8642C65.2838 19.7745 65.0455 19.73 64.8054 19.7332C64.2672 19.7332 63.829 19.9129 63.4909 20.2722C63.1479 20.6371 62.9765 21.0914 62.9765 21.635C62.9765 22.1843 63.1699 22.6384 63.5569 22.9973C63.9439 23.3563 64.4241 23.536 64.9975 23.5363C65.5047 23.5363 65.9093 23.4285 66.2111 23.2128L66.2069 23.2034ZM63.6107 20.3484C63.9115 20.0204 64.3099 19.8562 64.8059 19.8558C65.0591 19.8509 65.3099 19.9045 65.5383 20.0124C65.738 20.1053 65.909 20.2494 66.0333 20.4298C66.2441 20.7253 66.3599 21.0768 66.3657 21.4383H63.13C63.1553 21.0281 63.3265 20.64 63.6134 20.3426L63.6107 20.3484ZM70.7048 23.3511V23.205C70.5025 23.329 70.2695 23.3954 70.0315 23.397C69.5249 23.397 69.2717 23.1302 69.2717 22.5966V19.9492H70.7682V19.8183H69.2717V18.5864H69.1287V19.8183H68.1155V19.9492H69.1287V22.6363C69.1287 22.9337 69.2092 23.1568 69.3703 23.3057C69.5314 23.4546 69.7518 23.529 70.0315 23.529C70.2686 23.5364 70.5027 23.4749 70.7048 23.3521V23.3511ZM78.915 22.7657C78.915 22.9866 78.9704 23.1572 79.0812 23.2775C79.1338 23.3365 79.1989 23.3832 79.2719 23.4145C79.3448 23.4458 79.4239 23.4608 79.5033 23.4586C79.5791 23.4602 79.6544 23.4471 79.725 23.42V23.2895C79.6578 23.3157 79.5861 23.3286 79.5139 23.3276C79.4497 23.3306 79.3858 23.3179 79.3278 23.2906C79.2698 23.2633 79.2195 23.2222 79.1814 23.1711C79.096 23.0452 79.0544 22.8952 79.0627 22.7438V21.022C79.0627 20.5959 78.9201 20.2738 78.6348 20.0557C78.3495 19.8376 77.9655 19.7277 77.4829 19.7259C76.9598 19.7259 76.5242 19.8491 76.1763 20.0953V20.2519C76.5563 19.9884 77.0109 19.8509 77.4749 19.859C77.9389 19.859 78.2951 19.9578 78.5435 20.1553C78.7918 20.3529 78.9159 20.6392 78.9155 21.0141V21.6455C78.4385 21.3576 77.8913 21.2032 77.3325 21.1988C76.8681 21.1988 76.4908 21.3091 76.2006 21.5296C76.064 21.6235 75.9528 21.7492 75.8769 21.8956C75.8009 22.042 75.7626 22.2046 75.7653 22.3691C75.7653 22.7333 75.9077 23.0206 76.1927 23.2311C76.4931 23.4344 76.8503 23.5395 77.2143 23.5316C77.5375 23.5384 77.8582 23.4734 78.1527 23.3415C78.4472 23.2096 78.708 23.0141 78.916 22.7693L78.915 22.7657ZM76.3024 23.1429C76.0379 22.9634 75.9058 22.7043 75.9062 22.3655C75.9062 22.0577 76.0395 21.8076 76.3061 21.6152C76.5728 21.4229 76.9279 21.3265 77.3715 21.3262C77.8886 21.3262 78.4031 21.4853 78.915 21.8036V22.558C78.7284 22.7997 78.4941 23.0013 78.2264 23.1507C77.9316 23.3148 77.5985 23.3997 77.2602 23.397C76.9229 23.4057 76.5902 23.3176 76.3024 23.1434V23.1429ZM84.6081 24.5673C84.9511 24.28 85.1226 23.872 85.1226 23.3433V19.8183H84.9801V20.542C84.5949 19.9976 84.0539 19.7256 83.357 19.7259C82.7818 19.7259 82.312 19.9158 81.9475 20.2957C81.602 20.6565 81.4094 21.1345 81.4094 21.6314C81.4094 22.1283 81.602 22.6063 81.9475 22.9671C82.313 23.3431 82.7829 23.5311 83.357 23.5311C84.0542 23.5311 84.5953 23.2591 84.9801 22.7151V23.3386C84.9801 23.8255 84.8204 24.2028 84.501 24.4703C84.1816 24.7377 83.7474 24.8713 83.1987 24.871C82.7007 24.8799 82.21 24.7519 81.7813 24.501V24.6576C82.2215 24.8916 82.7148 25.0109 83.2145 25.004C83.8009 25.004 84.2655 24.8604 84.6081 24.573V24.5673ZM82.0668 22.8893C81.8998 22.7237 81.7682 22.5266 81.6798 22.3097C81.5914 22.0928 81.5481 21.8605 81.5523 21.6267C81.5494 21.3922 81.5941 21.1595 81.684 20.9424C81.7738 20.7254 81.9068 20.5284 82.0752 20.3632C82.2435 20.198 82.4438 20.0679 82.664 19.9808C82.8842 19.8936 83.1198 19.8511 83.357 19.8558C83.6989 19.8539 84.0346 19.9458 84.3268 20.1214C84.609 20.2816 84.8365 20.5214 84.9801 20.8101V22.4427C84.8365 22.7314 84.609 22.9712 84.3268 23.1314C84.0346 23.307 83.6989 23.399 83.357 23.397C83.1183 23.403 82.881 23.361 82.6592 23.2736C82.4375 23.1863 82.2359 23.0554 82.0668 22.8888V22.8893ZM90.5782 23.2024V23.0615C90.2504 23.2873 89.8458 23.4001 89.3646 23.4001C88.8257 23.4001 88.3769 23.2334 88.0185 22.8998C87.6667 22.5606 87.4908 22.1371 87.4908 21.6293V21.5771H90.8796V21.5249C90.8787 21.3848 90.8643 21.245 90.8363 21.1075C90.801 20.9441 90.7464 20.7852 90.6738 20.6343C90.5981 20.4706 90.4966 20.3198 90.373 20.1877C90.2324 20.0469 90.0636 19.9367 89.8775 19.8642C89.6554 19.7742 89.4172 19.7297 89.1773 19.7332C88.639 19.7332 88.2009 19.9129 87.8628 20.2722C87.5191 20.6371 87.3474 21.0914 87.3478 21.635C87.3481 22.1787 87.5416 22.6328 87.9282 22.9973C88.3127 23.3567 88.7929 23.5363 89.3688 23.5363C89.8754 23.5363 90.2799 23.4285 90.5825 23.2128L90.5782 23.2024ZM87.9837 20.3484C88.2844 20.0204 88.683 19.8562 89.1794 19.8558C89.4323 19.8509 89.683 19.9045 89.9113 20.0124C90.1112 20.1052 90.2823 20.2494 90.4068 20.4298C90.6175 20.7253 90.7333 21.0768 90.7392 21.4383H87.4982C87.523 21.0281 87.6941 20.6399 87.981 20.3426L87.9837 20.3484ZM93.9295 20.1251C94.2224 19.9537 94.5554 19.8609 94.8957 19.8558C95.7878 19.8558 96.2339 20.3254 96.2339 21.2646V23.4356H96.3764V21.2427C96.3764 20.7557 96.2533 20.3809 96.007 20.1183C95.7608 19.8557 95.3967 19.7249 94.9147 19.7259C94.5811 19.7249 94.2522 19.804 93.9564 19.9565C93.6761 20.0941 93.4301 20.2913 93.2362 20.5341V19.8183H93.0937V23.4367H93.2362V20.7574C93.4127 20.4941 93.6516 20.2774 93.9322 20.1261L93.9295 20.1251ZM99.0607 22.966C99.4125 23.3427 99.8788 23.5311 100.46 23.5311C100.924 23.5311 101.328 23.4182 101.673 23.1925V23.036C101.318 23.2811 100.893 23.4078 100.46 23.3975C100.223 23.4031 99.9869 23.3611 99.7668 23.2742C99.5466 23.1873 99.3466 23.0572 99.1787 22.8918C99.0107 22.7264 98.8784 22.529 98.7897 22.3117C98.7009 22.0944 98.6576 21.8615 98.6623 21.6272C98.6593 21.3933 98.7038 21.1612 98.7931 20.9446C98.8825 20.728 99.0148 20.5313 99.1824 20.3662C99.35 20.2011 99.5494 20.0709 99.7687 19.9833C99.9881 19.8957 100.223 19.8526 100.46 19.8564C100.859 19.8522 101.252 19.9608 101.592 20.1694V20.0129C101.249 19.8137 100.857 19.7123 100.46 19.7202C99.8837 19.7202 99.4165 19.9101 99.058 20.2899C98.7125 20.6507 98.5199 21.1287 98.5199 21.6256C98.5199 22.1225 98.7125 22.6006 99.058 22.9613L99.0607 22.966ZM104.5 24.7311C104.679 24.5517 104.867 24.2617 105.062 23.8614L107.002 19.8193H106.844L105.252 23.122L103.629 19.8193H103.471L105.174 23.2916C104.931 23.8509 104.714 24.2563 104.524 24.5078C104.34 24.7489 104.115 24.8694 103.851 24.8694C103.685 24.87 103.521 24.8275 103.377 24.7463V24.8851C103.525 24.9646 103.691 25.0044 103.86 25.0004C103.98 25.0014 104.098 24.978 104.208 24.9317C104.318 24.8853 104.418 24.8171 104.5 24.7311Z" fill="#212121"/>
<path fill-rule="evenodd" clip-rule="evenodd" d="M0 0L15.6061 3.861L30.7637 0V22.4564C30.7637 23.2751 32.7356 23.7525 32.7356 23.7525H29.1479V2.25608L15.5866 5.6475L1.86693 2.25608V23.7525H0V0Z" fill="#212121"/>
<path fill-rule="evenodd" clip-rule="evenodd" d="M26.3722 7.19141L16.5632 12.6746L26.4255 18.0925L18.9324 12.6845L26.3722 7.19141Z" fill="#212121"/>
<path fill-rule="evenodd" clip-rule="evenodd" d="M4.9455 7.21933C4.9455 7.21933 11.0908 6.8708 14.7477 12.679C11.6755 17.8616 5.56605 18.1142 5.5613 18.1157L4.96291 18.1309L4.9455 7.21933Z" fill="#212121"/>
<path fill-rule="evenodd" clip-rule="evenodd" d="M5.34869 7.72573C5.34869 7.72573 10.9595 7.41267 14.2665 12.6579C11.4882 17.3407 5.95816 17.6224 5.95816 17.6224L5.364 17.6355L5.34869 7.72573Z" fill="#EAC63C"/>
<path d="M8.98538 15.762C9.7495 15.762 10.369 14.4134 10.369 12.7499C10.369 11.0864 9.7495 9.73779 8.98538 9.73779C8.22125 9.73779 7.60181 11.0864 7.60181 12.7499C7.60181 14.4134 8.22125 15.762 8.98538 15.762Z" fill="#212121"/>
<path fill-rule="evenodd" clip-rule="evenodd" d="M8.89325 9.35352L9.26262 12.0703L9.81352 9.54813" fill="#EAC63C"/>
</g>
<defs>
<clipPath id="clip0">
<rect width="107" height="25" fill="white"/>
</clipPath>
</defs>
</svg>
