<svg width="45" height="27" viewBox="0 0 45 27" fill="none" xmlns="http://www.w3.org/2000/svg">
<path d="M45 13.5C45 20.9286 39 27 31.5 27C24.0714 27 18 20.9286 18 13.5C18 6.07143 24 0 31.4286 0C39 0 45 6.07143 45 13.5Z" fill="#FFB600"/>
<path d="M31.5 0C38.9285 0 45 6.07143 45 13.5C45 20.9286 39 27 31.5 27C24.0714 27 18 20.9286 18 13.5" fill="#F7981D"/>
<path d="M31.5 0C38.9286 0 45 6.07143 45 13.5C45 20.9286 39 27 31.5 27" fill="#FF8500"/>
<path d="M13.3571 0C6 0.0714286 0 6.07143 0 13.5C0 20.9286 6 27 13.5 27C17 27 20.1429 25.6429 22.5714 23.5C23.0714 23.0714 23.5 22.5714 23.9286 22.0714H21.1429C20.7857 21.6429 20.4286 21.1429 20.1429 20.7143H24.9286C25.2143 20.2857 25.5 19.7857 25.7143 19.2857H19.3571C19.1429 18.8571 18.9286 18.3571 18.7857 17.8571H26.2143C26.6429 16.5 26.9286 15.0714 26.9286 13.5714C26.9286 12.5714 26.7857 11.6429 26.6429 10.7143H18.3571C18.4286 10.2143 18.5714 9.78571 18.7143 9.28571H26.1429C26 8.78571 25.7857 8.28571 25.5714 7.85714H19.2857C19.5 7.35714 19.7857 6.92857 20.0714 6.42857H24.8571C24.5714 5.92857 24.2143 5.42857 23.7857 5H21.1429C21.5714 4.5 22 4.07143 22.5 3.64286C20.1429 1.42857 16.9286 0.142857 13.4286 0.142857C13.4286 -1.38368e-07 13.4286 0 13.3571 0Z" fill="#FF5050"/>
<path d="M0 13.4997C0 20.9283 6 26.9997 13.5 26.9997C17 26.9997 20.1429 25.6426 22.5714 23.4997C23.0714 23.0711 23.5 22.5711 23.9286 22.0711H21.1429C20.7857 21.6426 20.4286 21.1426 20.1429 20.714H24.9286C25.2143 20.2854 25.5 19.7854 25.7143 19.2854H19.3571C19.1429 18.8569 18.9286 18.3569 18.7857 17.8569H26.2143C26.6429 16.4997 26.9286 15.0711 26.9286 13.5711C26.9286 12.5711 26.7857 11.6426 26.6429 10.714H18.3571C18.4286 10.214 18.5714 9.78543 18.7143 9.28543H26.1429C26 8.78543 25.7857 8.28543 25.5714 7.85686H19.2857C19.5 7.35686 19.7857 6.92829 20.0714 6.42829H24.8571C24.5714 5.92829 24.2143 5.42829 23.7857 4.99972H21.1429C21.5714 4.49972 22 4.07115 22.5 3.64258C20.1429 1.42829 16.9286 0.142578 13.4286 0.142578H13.3571" fill="#E52836"/>
<path d="M13.4998 26.9997C16.9998 26.9997 20.1426 25.6426 22.5712 23.4997C23.0712 23.0711 23.4998 22.5711 23.9284 22.0711H21.1426C20.7855 21.6426 20.4284 21.1426 20.1426 20.714H24.9284C25.2141 20.2854 25.4998 19.7854 25.7141 19.2854H19.3569C19.1426 18.8569 18.9284 18.3569 18.7855 17.8569H26.2141C26.6426 16.4997 26.9284 15.0711 26.9284 13.5711C26.9284 12.5711 26.7855 11.6426 26.6426 10.714H18.3569C18.4284 10.214 18.5712 9.78543 18.7141 9.28543H26.1426C25.9998 8.78543 25.7855 8.28543 25.5712 7.85686H19.2855C19.4998 7.35686 19.7855 6.92829 20.0712 6.42829H24.8569C24.5712 5.92829 24.2141 5.42829 23.7855 4.99972H21.1426C21.5712 4.49972 21.9998 4.07115 22.4998 3.64258C20.1426 1.42829 16.9284 0.142578 13.4284 0.142578H13.3569" fill="#CB2026"/>
<path d="M18.2857 16.9283L18.4999 15.714C18.4285 15.714 18.2857 15.7854 18.1428 15.7854C17.6428 15.7854 17.5714 15.4997 17.6428 15.3569L18.0714 12.8569H18.8571L19.0714 11.4997H18.3571L18.4999 10.6426H17.0714C17.0714 10.6426 16.2142 15.3569 16.2142 15.9283C16.2142 16.7854 16.7142 17.1426 17.3571 17.1426C17.7857 17.1426 18.1428 16.9997 18.2857 16.9283Z" fill="white"/>
<path d="M18.7856 14.6433C18.7856 16.6433 20.1428 17.1433 21.2856 17.1433C22.3571 17.1433 22.7856 16.929 22.7856 16.929L23.0714 15.5718C23.0714 15.5718 22.2856 15.929 21.5714 15.929C19.9999 15.929 20.2856 14.7861 20.2856 14.7861H23.2142C23.2142 14.7861 23.4285 13.8575 23.4285 13.5004C23.4285 12.5718 22.9285 11.429 21.3571 11.429C19.8571 11.2861 18.7856 12.8575 18.7856 14.6433ZM21.2856 12.5718C22.0714 12.5718 21.9285 13.5004 21.9285 13.5718H20.3571C20.3571 13.5004 20.4999 12.5718 21.2856 12.5718Z" fill="white"/>
<path d="M30.357 16.9286L30.6428 15.3571C30.6428 15.3571 29.9285 15.7143 29.4285 15.7143C28.4285 15.7143 27.9999 14.9286 27.9999 14.0714C27.9999 12.3571 28.857 11.4286 29.857 11.4286C30.5713 11.4286 31.1428 11.8571 31.1428 11.8571L31.357 10.3571C31.357 10.3571 30.4999 10 29.7142 10C28.0713 10 26.4285 11.4286 26.4285 14.1428C26.4285 15.9286 27.2856 17.1428 28.9999 17.1428C29.5713 17.1428 30.357 16.9286 30.357 16.9286Z" fill="white"/>
<path d="M10.4285 11.2852C9.42852 11.2852 8.71423 11.5709 8.71423 11.5709L8.49995 12.7852C8.49995 12.7852 9.1428 12.4994 10.0714 12.4994C10.5714 12.4994 10.9999 12.5709 10.9999 12.9994C10.9999 13.2852 10.9285 13.3566 10.9285 13.3566C10.9285 13.3566 10.4999 13.3566 10.2857 13.3566C9.07137 13.3566 7.71423 13.8566 7.71423 15.4994C7.71423 16.7851 8.57137 17.0709 9.07137 17.0709C10.0714 17.0709 10.4999 16.428 10.5714 16.428L10.4999 16.9994H11.7857L12.3571 13.0709C12.3571 11.3566 10.9285 11.2852 10.4285 11.2852ZM10.7142 14.4994C10.7142 14.7137 10.5714 15.8566 9.71423 15.8566C9.28566 15.8566 9.1428 15.4994 9.1428 15.2851C9.1428 14.928 9.35709 14.428 10.4285 14.428C10.6428 14.4994 10.7142 14.4994 10.7142 14.4994Z" fill="white"/>
<path d="M13.7141 17.072C14.0713 17.072 15.857 17.1434 15.857 15.2148C15.857 13.4291 14.1427 13.7863 14.1427 13.072C14.1427 12.7148 14.4284 12.572 14.9284 12.572C15.1427 12.572 15.9284 12.6434 15.9284 12.6434L16.1427 11.3577C16.1427 11.3577 15.6427 11.2148 14.7856 11.2148C13.7141 11.2148 12.6427 11.6434 12.6427 13.072C12.6427 14.7148 14.4284 14.572 14.4284 15.2148C14.4284 15.6434 13.9284 15.7148 13.5713 15.7148C12.9284 15.7148 12.2856 15.5006 12.2856 15.5006L12.0713 16.7863C12.1427 16.9291 12.4999 17.072 13.7141 17.072Z" fill="white"/>
<path d="M42.2142 10.1426L41.9285 12.0712C41.9285 12.0712 41.3571 11.3569 40.5714 11.3569C39.2857 11.3569 38.1428 12.9283 38.1428 14.7854C38.1428 15.9283 38.7143 17.1426 39.9285 17.1426C40.7857 17.1426 41.2857 16.5712 41.2857 16.5712L41.2142 17.0712H42.6428L43.7142 10.214L42.2142 10.1426ZM41.5714 13.9283C41.5714 14.714 41.2142 15.714 40.4285 15.714C39.9285 15.714 39.6428 15.2854 39.6428 14.5712C39.6428 13.4283 40.1428 12.714 40.7857 12.714C41.2857 12.714 41.5714 13.0711 41.5714 13.9283Z" fill="white"/>
<path d="M2.64279 16.9997L3.49993 11.8569L3.64279 16.9997H4.64279L6.49993 11.8569L5.71422 16.9997H7.21422L8.35707 10.1426H5.99993L4.57136 14.3569L4.49993 10.1426H2.4285L1.28564 16.9997H2.64279Z" fill="white"/>
<path d="M24.7855 17.0001C25.2141 14.643 25.2855 12.7144 26.2855 13.0716C26.4284 12.143 26.6427 11.7859 26.7855 11.4287C26.7855 11.4287 26.7141 11.4287 26.4998 11.4287C25.857 11.4287 25.357 12.2859 25.357 12.2859L25.4998 11.5001H24.1427L23.2141 17.0716H24.7855V17.0001Z" fill="white"/>
<path d="M33.6428 11.2852C32.6428 11.2852 31.9285 11.5709 31.9285 11.5709L31.7142 12.7852C31.7142 12.7852 32.357 12.4994 33.2856 12.4994C33.7856 12.4994 34.2142 12.5709 34.2142 12.9994C34.2142 13.2852 34.1428 13.3566 34.1428 13.3566C34.1428 13.3566 33.7142 13.3566 33.4999 13.3566C32.2856 13.3566 30.9285 13.8566 30.9285 15.4994C30.9285 16.7851 31.7856 17.0709 32.2856 17.0709C33.2856 17.0709 33.7142 16.428 33.7856 16.428L33.7142 16.9994H34.9999L35.5713 13.0709C35.6428 11.3566 34.1428 11.2852 33.6428 11.2852ZM33.9999 14.4994C33.9999 14.7137 33.857 15.8566 32.9999 15.8566C32.5713 15.8566 32.4285 15.4994 32.4285 15.2851C32.4285 14.928 32.6428 14.428 33.7142 14.428C33.9285 14.4994 33.9285 14.4994 33.9999 14.4994Z" fill="white"/>
<path d="M36.7857 17.0001C37.2142 14.643 37.2857 12.7144 38.2857 13.0716C38.4285 12.143 38.6428 11.7859 38.7857 11.4287C38.7857 11.4287 38.7142 11.4287 38.5 11.4287C37.8571 11.4287 37.3571 12.2859 37.3571 12.2859L37.5 11.5001H36.1428L35.2142 17.0716H36.7857V17.0001Z" fill="white"/>
<path d="M16.0713 15.9283C16.0713 16.7854 16.5713 17.1426 17.2141 17.1426C17.7141 17.1426 18.1427 16.9997 18.2856 16.9283L18.4999 15.714C18.4284 15.714 18.2856 15.7854 18.1427 15.7854C17.6427 15.7854 17.5713 15.4997 17.6427 15.3569L18.0713 12.8569H18.857L19.0713 11.4997H18.357L18.4999 10.6426" fill="#DCE5E5"/>
<path d="M19.4999 14.6433C19.4999 16.6433 20.1427 17.1433 21.2856 17.1433C22.357 17.1433 22.7856 16.929 22.7856 16.929L23.0713 15.5718C23.0713 15.5718 22.2856 15.929 21.5713 15.929C19.9999 15.929 20.2856 14.7861 20.2856 14.7861H23.2142C23.2142 14.7861 23.4284 13.8575 23.4284 13.5004C23.4284 12.5718 22.9285 11.429 21.357 11.429C19.857 11.2861 19.4999 12.8575 19.4999 14.6433ZM21.2856 12.5718C22.0713 12.5718 22.2142 13.5004 22.2142 13.5718H20.357C20.357 13.5004 20.4999 12.5718 21.2856 12.5718Z" fill="#DCE5E5"/>
<path d="M30.357 16.9286L30.6427 15.3571C30.6427 15.3571 29.9284 15.7143 29.4284 15.7143C28.4284 15.7143 27.9998 14.9286 27.9998 14.0714C27.9998 12.3571 28.857 11.4286 29.857 11.4286C30.5713 11.4286 31.1427 11.8571 31.1427 11.8571L31.357 10.3571C31.357 10.3571 30.4998 10 29.7141 10C28.0713 10 27.1427 11.4286 27.1427 14.1428C27.1427 15.9286 27.2856 17.1428 28.9998 17.1428C29.5713 17.1428 30.357 16.9286 30.357 16.9286Z" fill="#DCE5E5"/>
<path d="M8.49995 12.8573C8.49995 12.8573 9.1428 12.5716 10.0714 12.5716C10.5714 12.5716 10.9999 12.643 10.9999 13.0716C10.9999 13.3573 10.9285 13.4287 10.9285 13.4287C10.9285 13.4287 10.4999 13.4287 10.2857 13.4287C9.07137 13.4287 7.71423 13.9287 7.71423 15.5716C7.71423 16.8573 8.57137 17.143 9.07137 17.143C10.0714 17.143 10.4999 16.5001 10.5714 16.5001L10.4999 17.0716H11.7857L12.3571 13.143C12.3571 11.5001 10.9285 11.4287 10.3571 11.4287L8.49995 12.8573ZM11.4285 14.5001C11.4285 14.7144 10.5714 15.8573 9.71423 15.8573C9.28566 15.8573 9.1428 15.5001 9.1428 15.2858C9.1428 14.9287 9.35709 14.4287 10.4285 14.4287C10.6428 14.5001 11.4285 14.5001 11.4285 14.5001Z" fill="#DCE5E5"/>
<path d="M12.1427 16.9291C12.1427 16.9291 12.5713 17.072 13.7856 17.072C14.1427 17.072 15.9284 17.1434 15.9284 15.2148C15.9284 13.4291 14.2141 13.7863 14.2141 13.072C14.2141 12.7148 14.4998 12.572 14.9998 12.572C15.2141 12.572 15.9998 12.6434 15.9998 12.6434L16.2141 11.3577C16.2141 11.3577 15.7141 11.2148 14.857 11.2148C13.7856 11.2148 13.4284 11.6434 13.4284 13.072C13.4284 14.7148 14.4998 14.572 14.4998 15.2148C14.4998 15.6434 13.9998 15.7148 13.6427 15.7148" fill="#DCE5E5"/>
<path d="M41.9285 12.072C41.9285 12.072 41.3571 11.3577 40.5714 11.3577C39.2857 11.3577 38.8571 12.9291 38.8571 14.7863C38.8571 15.9291 38.7143 17.1434 39.9285 17.1434C40.7857 17.1434 41.2857 16.572 41.2857 16.572L41.2143 17.072H42.6428L43.7143 10.2148L41.9285 12.072ZM41.8571 13.9291C41.8571 14.7148 41.2143 15.7148 40.4285 15.7148C39.9285 15.7148 39.6428 15.2863 39.6428 14.572C39.6428 13.4291 40.1428 12.7148 40.7857 12.7148C41.2857 12.7148 41.8571 13.072 41.8571 13.9291Z" fill="#DCE5E5"/>
<path d="M2.64279 16.9997L3.49993 11.8569L3.64279 16.9997H4.64279L6.49993 11.8569L5.71422 16.9997H7.21422L8.35707 10.1426H6.57136L4.57136 14.3569L4.49993 10.1426H3.71422L1.28564 16.9997H2.64279Z" fill="#DCE5E5"/>
<path d="M23.2858 17.0001H24.7858C25.2143 14.643 25.2858 12.7144 26.2858 13.0716C26.4286 12.143 26.6429 11.7859 26.7858 11.4287C26.7858 11.4287 26.7143 11.4287 26.5001 11.4287C25.8572 11.4287 25.3572 12.2859 25.3572 12.2859L25.5001 11.5001" fill="#DCE5E5"/>
<path d="M31.7142 12.8573C31.7142 12.8573 32.357 12.5716 33.2856 12.5716C33.7856 12.5716 34.2142 12.643 34.2142 13.0716C34.2142 13.3573 34.1428 13.4287 34.1428 13.4287C34.1428 13.4287 33.7142 13.4287 33.4999 13.4287C32.2856 13.4287 30.9285 13.9287 30.9285 15.5716C30.9285 16.8573 31.7856 17.143 32.2856 17.143C33.2856 17.143 33.7142 16.5001 33.7856 16.5001L33.7142 17.0716H34.9999L35.5713 13.143C35.5713 11.5001 34.1428 11.4287 33.5713 11.4287L31.7142 12.8573ZM34.6428 14.5001C34.6428 14.7144 33.7856 15.8573 32.9285 15.8573C32.4999 15.8573 32.357 15.5001 32.357 15.2858C32.357 14.9287 32.5713 14.4287 33.6428 14.4287C33.9285 14.5001 34.6428 14.5001 34.6428 14.5001Z" fill="#DCE5E5"/>
<path d="M35.2856 17.0001H36.7856C37.2142 14.643 37.2856 12.7144 38.2856 13.0716C38.4285 12.143 38.6428 11.7859 38.7856 11.4287C38.7856 11.4287 38.7142 11.4287 38.4999 11.4287C37.8571 11.4287 37.3571 12.2859 37.3571 12.2859L37.4999 11.5001" fill="#DCE5E5"/>
</svg>
