<svg width="64" height="21" viewBox="0 0 64 21" fill="none" xmlns="http://www.w3.org/2000/svg">
<path d="M26.16 0.123047L22.948 20.111H28.0819L31.292 0.123047H26.16ZM41.6459 8.26501C39.8518 7.37904 38.752 6.78108 38.752 5.87493C38.7739 5.05104 39.682 4.20697 41.7099 4.20697C43.3779 4.16507 44.6039 4.55706 45.5339 4.94707L45.9998 5.15501L46.6978 0.973042C45.6837 0.581057 44.0759 0.149149 42.0899 0.149149C37.0199 0.149149 33.45 2.78512 33.4278 6.55515C33.3859 9.33721 35.9837 10.881 37.9278 11.8071C39.9139 12.7571 40.5899 13.3731 40.5899 14.2172C40.568 15.5131 38.984 16.1111 37.506 16.1111C35.4581 16.1111 34.3581 15.8031 32.6881 15.081L32.0121 14.773L31.2942 19.1191C32.5002 19.6552 34.718 20.127 37.0202 20.1511C42.4081 20.1511 45.9141 17.5551 45.9582 13.5372C45.9757 11.3331 44.6058 9.64496 41.6459 8.26501ZM59.8597 0.184904H55.8876C54.6636 0.184904 53.7336 0.536967 53.2036 1.79298L45.5776 20.111H50.9656L52.4495 16.1451H58.4775L59.2475 20.127H63.9995L59.8597 0.184904ZM53.9437 12.1427C54.0477 12.1528 56.0118 5.66874 56.0118 5.66874L57.5758 12.1427C57.5758 12.1427 54.9578 12.1427 53.9437 12.1427ZM18.6581 0.123047L13.6281 13.703L13.0801 11.0249C12.1501 7.93488 9.23421 4.57702 5.9801 2.90905L10.5861 20.091H16.0182L24.0901 0.125239H18.6581V0.123047Z" fill="#2394BC"/>
<path d="M11.388 2.69987C10.996 1.1758 9.74587 0.147912 8.04808 0.125977H0.0820382L0 0.495806C6.21407 2.02777 11.4299 6.74168 13.1219 11.1757L11.388 2.69987Z" fill="#EFC75E"/>
</svg>
